<?xml version="1.0" encoding="UTF-8"?>
<svg version="1.1" xmlns="http://www.w3.org/2000/svg" width="334" height="200">
<path d="M0 0 C110.22 0 220.44 0 334 0 C334 66 334 132 334 200 C223.78 200 113.56 200 0 200 C0 134 0 68 0 0 Z " fill="#FEFEFE" transform="translate(0,0)"/>
<path d="M0 0 C1.46272737 -0.0165225 2.92537524 -0.04376432 4.38769531 -0.08203125 C6.49896014 -0.13699966 8.60832934 -0.15870401 10.72021484 -0.17333984 C11.98639648 -0.19315918 13.25257813 -0.21297852 14.55712891 -0.23339844 C18.83336041 0.50102189 20.2564184 2.03575425 22.95458984 5.35009766 C24.34814594 8.13720984 24.11024791 10.45396552 24.14404297 13.57226562 C24.1607605 14.88057343 24.17747803 16.18888123 24.19470215 17.53683472 C24.20138412 18.23821438 24.2080661 18.93959404 24.21495056 19.66222763 C24.23597401 21.85628688 24.26299878 24.05019879 24.29162598 26.24417114 C24.35134688 30.90442329 24.40346532 35.56474434 24.45458984 40.22509766 C24.51385105 45.6182839 24.57622013 51.01139803 24.64646912 56.40445328 C24.67300188 58.56476783 24.69384435 60.72508974 24.71447754 62.88546753 C24.73119507 64.20007965 24.7479126 65.51469177 24.76513672 66.86914062 C24.77766479 68.02670868 24.79019287 69.18427673 24.80310059 70.37692261 C24.931274 72.89249365 25.30486379 74.93999288 25.95458984 77.35009766 C25.51005682 79.79502927 24.7427821 81.9855209 23.95458984 84.35009766 C28.82297994 85.4822814 30.00904801 85.32831439 34.95458984 83.35009766 C34.95458984 69.82009766 34.95458984 56.29009766 34.95458984 42.35009766 C33.30458984 41.69009766 31.65458984 41.03009766 29.95458984 40.35009766 C28.46958984 39.36009766 28.46958984 39.36009766 26.95458984 38.35009766 C26.95458984 37.36009766 26.95458984 36.37009766 26.95458984 35.35009766 C30.74684235 36.80007656 34.33269269 38.51908317 37.95458984 40.35009766 C38.42757092 46.55629877 38.77023132 52.75189568 38.99829102 58.97192383 C39.09335304 61.08120326 39.22268815 63.18924563 39.38793945 65.29418945 C40.45616286 79.26046643 40.45616286 79.26046643 37.95458984 85.35009766 C33.49035851 90.3557807 27.3087297 92.88252374 21.21395874 95.39047241 C18.46814397 96.55670656 16.01734317 98.01962199 13.52099609 99.64697266 C12.83328125 100.06720703 12.14556641 100.48744141 11.43701172 100.92041016 C10.09359733 101.74586519 8.75545529 102.57993452 7.42138672 103.42041016 C2.50264476 106.39916614 2.50264476 106.39916614 0.14941406 106.18847656 C-2.96178163 105.0000621 -5.75451457 103.34159333 -8.60400391 101.63916016 C-9.23017105 101.27035736 -9.8563382 100.90155457 -10.5014801 100.52157593 C-12.49809793 99.34409572 -14.49051234 98.15970156 -16.48291016 96.97509766 C-17.81922958 96.18557948 -19.15581547 95.39651213 -20.49267578 94.60791016 C-24.01421501 92.52857624 -27.53152072 90.44233717 -31.04541016 88.35009766 C-31.98964844 87.9770752 -32.93388672 87.60405273 -33.90673828 87.21972656 C-36.46652832 84.98195577 -36.45569542 84.27682381 -36.8034668 80.98974609 C-36.88393847 79.14738115 -36.93251228 77.30345009 -36.95556641 75.45947266 C-36.97695175 74.48149719 -36.9983371 73.50352173 -37.02037048 72.49591064 C-37.05446025 70.42486199 -37.07456271 68.35354316 -37.08178711 66.28222656 C-37.1077318 63.12182348 -37.22406607 59.97297835 -37.34423828 56.81494141 C-37.62004256 42.13096353 -37.62004256 42.13096353 -33.43945312 37.40283203 C-29.14588997 34.84563152 -24.89239006 33.45018388 -20.04541016 32.35009766 C-20.04130127 31.58866455 -20.03719238 30.82723145 -20.03295898 30.04272461 C-19.99999876 26.581901 -19.92934961 23.12283195 -19.85791016 19.66259766 C-19.85210937 18.46441406 -19.84630859 17.26623047 -19.84033203 16.03173828 C-19.59172712 6.11516462 -19.59172712 6.11516462 -16.55712891 3.08056641 C-15.72826172 2.50951172 -14.89939453 1.93845703 -14.04541016 1.35009766 C-11.3714861 -1.3238264 -3.83585652 0.03175804 0 0 Z " fill="#2B2A2A" transform="translate(166.04541015625,31.64990234375)"/>
<path d="M0 0 C1.32 0 2.64 0 4 0 C4.00364563 0.55266037 4.00729126 1.10532074 4.01104736 1.67472839 C4.05290241 7.43404993 4.1222685 13.19257677 4.20751953 18.95141602 C4.23572127 21.09977261 4.25693975 23.24823281 4.27099609 25.39672852 C4.29243623 28.48768119 4.33909311 31.57738922 4.390625 34.66796875 C4.39185364 35.62648239 4.39308228 36.58499603 4.39434814 37.57255554 C4.48431171 41.68122109 4.69801796 44.40771144 6.58496094 48.10864258 C9.90226992 50.70662001 12.06259844 50.61668895 16.25 50.59375 C16.94512695 50.59379028 17.64025391 50.59383057 18.35644531 50.59387207 C19.82235788 50.58852383 21.28827037 50.57097005 22.75390625 50.54199219 C24.99308216 50.50012933 27.22924866 50.50092475 29.46875 50.5078125 C36.67587698 50.77415094 36.67587698 50.77415094 43.375 48.66992188 C45.59732229 46.3861652 46.18961946 44.03892703 47 41 C47.99 41.495 47.99 41.495 49 42 C49.17942163 45.94727588 49.09350689 48.5980513 47 52 C51.86839009 53.13218374 53.05445816 52.97821674 58 51 C58 37.47 58 23.94 58 10 C56.35 9.34 54.7 8.68 53 8 C52.01 7.34 51.02 6.68 50 6 C50 5.01 50 4.02 50 3 C53.79225251 4.4499789 57.37810284 6.16898551 61 8 C61.47298108 14.20620111 61.81564148 20.40179802 62.04370117 26.62182617 C62.1387632 28.7311056 62.26809831 30.83914797 62.43334961 32.9440918 C63.50157302 46.91036877 63.50157302 46.91036877 61 53 C56.53576866 58.00568305 50.35413986 60.53242609 44.2593689 63.04037476 C41.51355413 64.20660891 39.06275332 65.66952433 36.56640625 67.296875 C35.87869141 67.71710938 35.19097656 68.13734375 34.48242188 68.5703125 C33.13900748 69.39576753 31.80086545 70.22983687 30.46679688 71.0703125 C25.54805491 74.04906848 25.54805491 74.04906848 23.19482422 73.83837891 C20.08362852 72.64996444 17.29089558 70.99149567 14.44140625 69.2890625 C13.81523911 68.9202597 13.18907196 68.55145691 12.54393005 68.17147827 C10.54731223 66.99399806 8.55489782 65.8096039 6.5625 64.625 C5.22618057 63.83548182 3.88959469 63.04641447 2.55273438 62.2578125 C-0.96880485 60.17847858 -4.48611056 58.09223951 -8 56 C-9.41635742 55.44046631 -9.41635742 55.44046631 -10.86132812 54.86962891 C-13.42111817 52.63185811 -13.41028526 51.92672615 -13.75805664 48.63964844 C-13.83852831 46.79728349 -13.88710212 44.95335244 -13.91015625 43.109375 C-13.9315416 42.13139954 -13.95292694 41.15342407 -13.97496033 40.14581299 C-14.00905009 38.07476433 -14.02915255 36.00344551 -14.03637695 33.93212891 C-14.06232165 30.77172582 -14.17865591 27.6228807 -14.29882812 24.46484375 C-14.56477286 10.1229979 -14.56477286 10.1229979 -11.78338623 6.34936523 C-8.59738435 3.5857613 -4.97758467 2.22810051 -1 1 C-0.67 0.67 -0.34 0.34 0 0 Z " fill="#F4F4F5" transform="translate(143,64)"/>
<path d="M0 0 C10.89 0 21.78 0 33 0 C33 17.49 33 34.98 33 53 C21.45 53 9.9 53 -2 53 C-2 38.81 -2 24.62 -2 10 C0 12 0 12 0.125 14.625 C0.08375 15.40875 0.0425 16.1925 0 17 C3.04658475 16.23292375 3.04658475 16.23292375 4.875 14.125 C7.92884843 11.07115157 10.25116519 9.04067058 14.6875 8.9375 C19.59623529 10.512 23.6658888 13.25610226 28 16 C28.66 16.33 29.32 16.66 30 17 C28.59980125 12.79940376 25.63174123 11.80948475 21.9375 9.8125 C21.27427734 9.44447266 20.61105469 9.07644531 19.92773438 8.69726562 C18.28972543 7.78987938 16.64543779 6.89384427 15 6 C15 5.34 15 4.68 15 4 C9.97350697 2.42922093 5.23880078 1.55145271 0 1 C0 0.67 0 0.34 0 0 Z " fill="#FCFCFC" transform="translate(153,46)"/>
<path d="M0 0 C2.475 0.495 2.475 0.495 5 1 C7.72502965 0.62277985 7.72502965 0.62277985 10 0 C10.33 2.31 10.66 4.62 11 7 C11.33 6.01 11.66 5.02 12 4 C13.93742341 3.97296619 15.87495479 3.95358875 17.8125 3.9375 C18.89144531 3.92589844 19.97039062 3.91429687 21.08203125 3.90234375 C24 4 24 4 27 5 C27 4.34 27 3.68 27 3 C28.28745036 2.61077082 29.58019597 2.23901964 30.875 1.875 C31.95394531 1.56175781 31.95394531 1.56175781 33.0546875 1.2421875 C33.69664062 1.16226563 34.33859375 1.08234375 35 1 C35.66 1.66 36.32 2.32 37 3 C37.66 2.67 38.32 2.34 39 2 C42.97123347 0.62534226 46.84866817 0.7991291 51 1 C51.66 1.66 52.32 2.32 53 3 C53.66 2.01 54.32 1.02 55 0 C56.32 0 57.64 0 59 0 C59 0.99 59 1.98 59 3 C60.051875 2.814375 61.10375 2.62875 62.1875 2.4375 C66 2 66 2 68.4375 2.5 C71.17008902 3.1838117 71.17008902 3.1838117 74.625 2.4375 C79.87737945 1.64411955 84.89669316 2.6905399 90 4 C91 5 91 5 91.1328125 6.8125 C91.13023437 7.534375 91.12765625 8.25625 91.125 9 C91.12886719 10.0828125 91.12886719 10.0828125 91.1328125 11.1875 C91 13 91 13 90 14 C88.00041636 14.04080783 85.99954746 14.04254356 84 14 C84 15.32 84 16.64 84 18 C82.68 18 81.36 18 80 18 C79.505 17.01 79.505 17.01 79 16 C77.67935547 16.03480469 77.67935547 16.03480469 76.33203125 16.0703125 C75.17058594 16.08835938 74.00914062 16.10640625 72.8125 16.125 C71.66394531 16.14820313 70.51539063 16.17140625 69.33203125 16.1953125 C66.08259628 16.00484152 63.91339479 15.39360127 61 14 C61 11.69 61 9.38 61 7 C60.34 7 59.68 7 59 7 C59.061875 8.258125 59.12375 9.51625 59.1875 10.8125 C59.20827858 14.73965177 59.20827858 14.73965177 57.5 16.875 C57.005 17.24625 56.51 17.6175 56 18 C56 18.66 56 19.32 56 20 C55.34 20 54.68 20 54 20 C53.505 21.485 53.505 21.485 53 23 C52.4225 22.814375 51.845 22.62875 51.25 22.4375 C49.06956344 21.83715211 49.06956344 21.83715211 47.25 22.5 C43.72962139 23.28230636 40.55197561 22.53279634 37 22 C36.875 15.25 36.875 15.25 38 13 C37.34 13.309375 36.68 13.61875 36 13.9375 C32.29523985 15.24960255 28.90736009 15.60264135 25 16 C25 16.66 25 17.32 25 18 C27.64 18 30.28 18 33 18 C33.495 19.98 33.495 19.98 34 22 C25.61037096 24.38857674 17.58152273 24.09622032 9 23 C8.67 22.67 8.34 22.34 8 22 C8.28730055 19.66055264 8.61936779 17.3260857 9 15 C8.01 15 7.02 15 6 15 C5.67 12.69 5.34 10.38 5 8 C4.67 9.98 4.34 11.96 4 14 C2.68 14 1.36 14 0 14 C0 9.38 0 4.76 0 0 Z " fill="#FAE3E7" transform="translate(136,144)"/>
<path d="M0 0 C-0.36834013 2.65204896 -0.6867691 3.73840056 -2.77734375 5.484375 C-3.49019531 5.90203125 -4.20304688 6.3196875 -4.9375 6.75 C-6.00291016 7.39195313 -6.00291016 7.39195313 -7.08984375 8.046875 C-9 9 -9 9 -11 9 C-11 22.53 -11 36.06 -11 50 C-9.35 50.66 -7.7 51.32 -6 52 C-3.90620282 53.20799967 -1.83497178 54.4555269 0.21875 55.73046875 C1.40975741 56.45833532 2.60117624 57.18552902 3.79296875 57.91210938 C5.65356988 59.05116752 7.5110457 60.19439306 9.36181641 61.34936523 C11.16041527 62.46902753 12.96952097 63.56971727 14.78125 64.66796875 C15.85439453 65.33078857 16.92753906 65.9936084 18.03320312 66.67651367 C21.41115672 68.18341677 22.57104908 68.23347804 26 67 C28.41234422 65.88128561 28.41234422 65.88128561 30.80078125 64.453125 C31.69603516 63.9375 32.59128906 63.421875 33.51367188 62.890625 C34.43728516 62.34921875 35.36089844 61.8078125 36.3125 61.25 C37.22451172 60.7240625 38.13652344 60.198125 39.07617188 59.65625 C43.93781884 56.84032832 48.72917181 53.95102712 53.43041992 50.87402344 C55 50 55 50 57 50 C57 36.47 57 22.94 57 9 C55.35 8.34 53.7 7.68 52 7 C51.01 6.34 50.02 5.68 49 5 C49 4.01 49 3.02 49 2 C52.79225251 3.4499789 56.37810284 5.16898551 60 7 C60.47298108 13.20620111 60.81564148 19.40179802 61.04370117 25.62182617 C61.1387632 27.7311056 61.26809831 29.83914797 61.43334961 31.9440918 C62.50157302 45.91036877 62.50157302 45.91036877 60 52 C55.53576866 57.00568305 49.35413986 59.53242609 43.2593689 62.04037476 C40.51355413 63.20660891 38.06275332 64.66952433 35.56640625 66.296875 C34.87869141 66.71710938 34.19097656 67.13734375 33.48242188 67.5703125 C32.13900748 68.39576753 30.80086545 69.22983687 29.46679688 70.0703125 C24.54805491 73.04906848 24.54805491 73.04906848 22.19482422 72.83837891 C19.08362852 71.64996444 16.29089558 69.99149567 13.44140625 68.2890625 C12.81523911 67.9202597 12.18907196 67.55145691 11.54393005 67.17147827 C9.54731223 65.99399806 7.55489782 64.8096039 5.5625 63.625 C4.22618057 62.83548182 2.88959469 62.04641447 1.55273438 61.2578125 C-1.96880485 59.17847858 -5.48611056 57.09223951 -9 55 C-10.41635742 54.44046631 -10.41635742 54.44046631 -11.86132812 53.86962891 C-14.42111817 51.63185811 -14.41028526 50.92672615 -14.75805664 47.63964844 C-14.83852831 45.79728349 -14.88710212 43.95335244 -14.91015625 42.109375 C-14.9315416 41.13139954 -14.95292694 40.15342407 -14.97496033 39.14581299 C-15.00905009 37.07476433 -15.02915255 35.00344551 -15.03637695 32.93212891 C-15.06232165 29.77172582 -15.17865591 26.6228807 -15.29882812 23.46484375 C-15.56496921 9.17276827 -15.56496921 9.17276827 -12.79949951 5.33325195 C-9.281004 2.19645187 -4.76030649 0 0 0 Z " fill="#202022" transform="translate(144,65)"/>
<path d="M0 0 C2.475 0.495 2.475 0.495 5 1 C7.72502965 0.62277985 7.72502965 0.62277985 10 0 C10.33 2.31 10.66 4.62 11 7 C11.33 6.01 11.66 5.02 12 4 C18.27 4 24.54 4 31 4 C31 4.66 31 5.32 31 6 C30.34 6 29.68 6 29 6 C29 6.66 29 7.32 29 8 C29.99 8 30.98 8 32 8 C32 7.01 32 6.02 32 5 C33.32 5.33 34.64 5.66 36 6 C36 6.99 36 7.98 36 9 C33.69 9.33 31.38 9.66 29 10 C29 10.66 29 11.32 29 12 C32.465 11.505 32.465 11.505 36 11 C35.67 11.99 35.34 12.98 35 14 C31.7 14.66 28.4 15.32 25 16 C25 16.66 25 17.32 25 18 C27.64 18 30.28 18 33 18 C33.495 19.98 33.495 19.98 34 22 C25.61037096 24.38857674 17.58152273 24.09622032 9 23 C8.67 22.67 8.34 22.34 8 22 C8.28730055 19.66055264 8.61936779 17.3260857 9 15 C8.01 15 7.02 15 6 15 C5.67 12.69 5.34 10.38 5 8 C4.67 9.98 4.34 11.96 4 14 C2.68 14 1.36 14 0 14 C0 9.38 0 4.76 0 0 Z " fill="#E9E9E9" transform="translate(136,144)"/>
<path d="M0 0 C12.21 0 24.42 0 37 0 C37 18.15 37 36.3 37 55 C24.79 55 12.58 55 0 55 C0 36.85 0 18.7 0 0 Z M3 1 C3 1.33 3 1.66 3 2 C4.12148437 2.19916016 4.12148437 2.19916016 5.265625 2.40234375 C6.25046875 2.57894531 7.2353125 2.75554688 8.25 2.9375 C9.71179688 3.19853516 9.71179688 3.19853516 11.203125 3.46484375 C13.49721795 3.90379729 15.74291971 4.40348592 18 5 C18 5.66 18 6.32 18 7 C18.99902344 7.54269531 19.99804688 8.08539063 21.02734375 8.64453125 C22.33099927 9.36670013 23.63437005 10.08938319 24.9375 10.8125 C25.59685547 11.16892578 26.25621094 11.52535156 26.93554688 11.89257812 C31.88671875 14.66015625 31.88671875 14.66015625 33 18 C31.22821947 17.043419 29.45760924 16.08467012 27.6875 15.125 C26.70136719 14.59132813 25.71523437 14.05765625 24.69921875 13.5078125 C22 12 22 12 19 10 C14.01021063 10.22176842 10.92064377 11.99113385 7 15 C6.67 15.66 6.34 16.32 6 17 C5.01 17.33 4.02 17.66 3 18 C2.67 15.69 2.34 13.38 2 11 C1.67 11 1.34 11 1 11 C1 25.19 1 39.38 1 54 C12.55 54 24.1 54 36 54 C36 36.51 36 19.02 36 1 C25.11 1 14.22 1 3 1 Z " fill="#B8B7B8" transform="translate(150,45)"/>
<path d="M0 0 C0.99 0.66 1.98 1.32 3 2 C3.66 1.67 4.32 1.34 5 1 C8.97123347 -0.37465774 12.84866817 -0.2008709 17 0 C17.66 0.66 18.32 1.32 19 2 C19.66 1.67 20.32 1.34 21 1 C21 4.96 21 8.92 21 13 C22.32 13.33 23.64 13.66 25 14 C24.505 14.45375 24.01 14.9075 23.5 15.375 C21.77390663 16.87635519 21.77390663 16.87635519 22 19 C21.34 19 20.68 19 20 19 C19.67 19.99 19.34 20.98 19 22 C18.4225 21.814375 17.845 21.62875 17.25 21.4375 C15.06956344 20.83715211 15.06956344 20.83715211 13.25 21.5 C9.72962139 22.28230636 6.55197561 21.53279634 3 21 C2.875 14.25 2.875 14.25 4 12 C3.34 12 2.68 12 2 12 C2 11.34 2 10.68 2 10 C-0.31 10.33 -2.62 10.66 -5 11 C-5 10.34 -5 9.68 -5 9 C-1.535 8.505 -1.535 8.505 2 8 C1.67 7.01 1.34 6.02 1 5 C0.01 4.67 -0.98 4.34 -2 4 C-2 4.99 -2 5.98 -2 7 C-2.99 7 -3.98 7 -5 7 C-5 6.34 -5 5.68 -5 5 C-4.34 5 -3.68 5 -3 5 C-3 4.34 -3 3.68 -3 3 C-4.32 2.67 -5.64 2.34 -7 2 C-3.6875 0.875 -3.6875 0.875 0 0 Z " fill="#F9F2F5" transform="translate(170,145)"/>
<path d="M0 0 C11.55 0 23.1 0 35 0 C35 6 35 6 33 9 C29.95898438 9.38818359 29.95898438 9.38818359 26.09375 9.3984375 C25.41324585 9.40130768 24.7327417 9.40417786 24.03161621 9.40713501 C22.59252084 9.40917695 21.15339779 9.40363786 19.71435547 9.39111328 C17.5081594 9.37505937 15.30379516 9.39095531 13.09765625 9.41015625 C11.70051678 9.40817384 10.30337845 9.4043302 8.90625 9.3984375 C7.63072266 9.39505371 6.35519531 9.39166992 5.04101562 9.38818359 C4.03748047 9.26008301 3.03394531 9.13198242 2 9 C0 6 0 6 0 0 Z " fill="#C15C76" transform="translate(151,103)"/>
<path d="M0 0 C0.33 0 0.66 0 1 0 C1.06955955 8.91008965 1.12284139 17.82008559 1.15543652 26.73038769 C1.17108182 30.86796356 1.19229917 35.00535343 1.22631836 39.14282227 C1.25895259 43.13691851 1.27686156 47.13083602 1.28463173 51.12505531 C1.29016797 52.64767584 1.300979 54.17028675 1.31719017 55.69283104 C1.33901914 57.8282307 1.34196474 59.9628951 1.34057617 62.09838867 C1.34723801 63.3130632 1.35389984 64.52773773 1.36076355 65.77922058 C0.96247654 69.33499725 0.1509555 71.16816564 -2 74 C-6.9519352 77.30129013 -12.87783382 76.37187267 -18.6784668 76.37060547 C-20.9263893 76.37497839 -23.17234679 76.41130369 -25.41992188 76.44921875 C-26.8515558 76.45508737 -28.28319903 76.45905646 -29.71484375 76.4609375 C-31.66571899 76.47326416 -31.66571899 76.47326416 -33.65600586 76.48583984 C-37 76 -37 76 -39.45532227 74.09619141 C-41 72 -41 72 -41 70 C-40.34 70 -39.68 70 -39 70 C-39.33 67.69 -39.66 65.38 -40 63 C-36.04886049 61.6964848 -32.0619131 61.87375422 -27.953125 61.90234375 C-27.26911621 61.90335083 -26.58510742 61.90435791 -25.88037109 61.90539551 C-23.33689689 61.9106087 -20.79344668 61.92456994 -18.25 61.9375 C-12.5575 61.958125 -6.865 61.97875 -1 62 C-0.67 41.54 -0.34 21.08 0 0 Z M-38 64 C-38.5547002 69.76887492 -38.5547002 69.76887492 -36 73 C-32.83090831 73.46839896 -32.83090831 73.46839896 -29.09375 73.3984375 C-28.41324585 73.40130768 -27.7327417 73.40417786 -27.03161621 73.40713501 C-25.59252084 73.40917695 -24.15339779 73.40363786 -22.71435547 73.39111328 C-20.5081594 73.37505937 -18.30379516 73.39095531 -16.09765625 73.41015625 C-14.70051678 73.40817384 -13.30337845 73.4043302 -11.90625 73.3984375 C-10.63072266 73.39505371 -9.35519531 73.39166992 -8.04101562 73.38818359 C-6.53571289 73.19603271 -6.53571289 73.19603271 -5 73 C-2.4452998 69.76887492 -2.4452998 69.76887492 -3 64 C-14.55 64 -26.1 64 -38 64 Z " fill="#39282E" transform="translate(189,39)"/>
<path d="M0 0 C1.30066406 0.00322266 2.60132813 0.00644531 3.94140625 0.00976562 C5.88080078 -0.0144043 5.88080078 -0.0144043 7.859375 -0.0390625 C9.72142578 -0.0400293 9.72142578 -0.0400293 11.62109375 -0.04101562 C13.33014893 -0.04548706 13.33014893 -0.04548706 15.07373047 -0.05004883 C18.37870546 0.36111832 19.81090504 0.88300071 22.06640625 3.32226562 C22.06640625 4.64226563 22.06640625 5.96226563 22.06640625 7.32226562 C10.51640625 7.32226562 -1.03359375 7.32226562 -12.93359375 7.32226562 C-11.21176663 -1.28686996 -7.76724161 0.04445352 0 0 Z " fill="#DC738F" transform="translate(163.93359375,34.677734375)"/>
<path d="M0 0 C12.21 0 24.42 0 37 0 C37 20.13 37 40.26 37 61 C36.505 59.02 36.505 59.02 36 57 C23.13 57.33 10.26 57.66 -3 58 C-2.67 60.31 -2.34 62.62 -2 65 C-2.66 65 -3.32 65 -4 65 C-4 61.37 -4 57.74 -4 54 C-3.34 54 -2.68 54 -2 54 C-2 54.66 -2 55.32 -2 56 C10.21 56 22.42 56 35 56 C35 37.85 35 19.7 35 1 C23.45 1 11.9 1 0 1 C0 0.67 0 0.34 0 0 Z " fill="#0C080A" transform="translate(152,44)"/>
<path d="M0 0 C2.15622571 0.00097226 4.30888763 -0.04066043 6.46459961 -0.08496094 C7.84284744 -0.09016879 9.22110757 -0.09285612 10.59936523 -0.09277344 C11.84645264 -0.09986328 13.09354004 -0.10695313 14.37841797 -0.11425781 C18.56606069 0.654845 20.04637978 2.28589355 22.72827148 5.50097656 C22.06827148 5.83097656 21.40827148 6.16097656 20.72827148 6.50097656 C20.39827148 8.15097656 20.06827148 9.80097656 19.72827148 11.50097656 C7.84827148 11.50097656 -4.03172852 11.50097656 -16.27172852 11.50097656 C-16.60172852 8.86097656 -16.93172852 6.22097656 -17.27172852 3.50097656 C-12.43731505 -1.04870423 -6.22508894 -0.01984092 0 0 Z M-14.16625977 4.77368164 C-15.63109765 6.72069781 -15.63109765 6.72069781 -15.27172852 10.50097656 C-3.72172852 10.50097656 7.82827148 10.50097656 19.72827148 10.50097656 C19.23327148 8.02597656 19.23327148 8.02597656 18.72827148 5.50097656 C13.65940865 2.12173467 7.67945734 3.17368733 1.72827148 3.18847656 C-0.21692383 3.16430664 -0.21692383 3.16430664 -2.20141602 3.13964844 C-3.44149414 3.13900391 -4.68157227 3.13835938 -5.95922852 3.13769531 C-7.0974707 3.13471436 -8.23571289 3.1317334 -9.40844727 3.12866211 C-12.24947768 3.28167488 -12.24947768 3.28167488 -14.16625977 4.77368164 Z " fill="#3C1D26" transform="translate(166.271728515625,31.4990234375)"/>
<path d="M0 0 C2.5 1.5625 2.5 1.5625 4 4 C3.78571429 10.21428571 3.78571429 10.21428571 1 13 C-1.09375 13.30078125 -1.09375 13.30078125 -3.5 13.3125 C-4.2940625 13.32925781 -5.088125 13.34601563 -5.90625 13.36328125 C-6.5971875 13.24339844 -7.288125 13.12351563 -8 13 C-10.46324069 9.30513897 -10.38991688 7.36706908 -10 3 C-7.7773391 -1.05308751 -4.20075589 -0.5158823 0 0 Z " fill="#1C1B1E" transform="translate(117,145)"/>
<path d="M0 0 C1.32 0 2.64 0 4 0 C4 0.66 4 1.32 4 2 C3.34 2 2.68 2 2 2 C2 2.66 2 3.32 2 4 C2.99 4 3.98 4 5 4 C5 3.01 5 2.02 5 1 C6.32 1.33 7.64 1.66 9 2 C9 2.99 9 3.98 9 5 C6.69 5.33 4.38 5.66 2 6 C2 6.66 2 7.32 2 8 C5.465 7.505 5.465 7.505 9 7 C8.67 7.99 8.34 8.98 8 10 C4.7 10.66 1.4 11.32 -2 12 C-1.67 11.01 -1.34 10.02 -1 9 C-1.33 8.67 -1.66 8.34 -2 8 C-2.1875 5.0625 -2.1875 5.0625 -2 2 C-1.34 1.34 -0.68 0.68 0 0 Z M-5 12 C-4.01 12 -3.02 12 -2 12 C-2 12.66 -2 13.32 -2 14 C0.64 14 3.28 14 6 14 C6.33 15.32 6.66 16.64 7 18 C5.4176994 18.33820166 3.83410625 18.67035939 2.25 19 C0.92742187 19.2784375 0.92742187 19.2784375 -0.421875 19.5625 C-3 20 -3 20 -7 20 C-7 18.35 -7 16.7 -7 15 C-6.34 15 -5.68 15 -5 15 C-5 14.01 -5 13.02 -5 12 Z " fill="#C4C4C4" transform="translate(163,148)"/>
<path d="M0 0 C4.62 0 9.24 0 14 0 C14 6 14 6 12 9 C9.1796875 9.29296875 9.1796875 9.29296875 5.875 9.1875 C4.23144531 9.14689453 4.23144531 9.14689453 2.5546875 9.10546875 C1.71164063 9.07066406 0.86859375 9.03585938 0 9 C0 6.03 0 3.06 0 0 Z " fill="#D64768" transform="translate(172,103)"/>
<path d="M0 0 C2.475 0.495 2.475 0.495 5 1 C6.65 0.67 8.3 0.34 10 0 C10 4.62 10 9.24 10 14 C8.68 14 7.36 14 6 14 C5.67 12.02 5.34 10.04 5 8 C4.67 9.98 4.34 11.96 4 14 C2.68 14 1.36 14 0 14 C0 9.38 0 4.76 0 0 Z " fill="#878788" transform="translate(136,144)"/>
<path d="M0 0 C2.01822917 0.06510417 4.03645833 0.13020833 6.0546875 0.1953125 C6.7146875 1.5153125 7.3746875 2.8353125 8.0546875 4.1953125 C6.4046875 4.1953125 4.7546875 4.1953125 3.0546875 4.1953125 C4.7046875 5.1853125 6.3546875 6.1753125 8.0546875 7.1953125 C7.1796875 12.0703125 7.1796875 12.0703125 6.0546875 13.1953125 C4.53540712 13.26711214 3.01301268 13.27923257 1.4921875 13.2578125 C0.66589844 13.24878906 -0.16039062 13.23976562 -1.01171875 13.23046875 C-1.64980469 13.21886719 -2.28789062 13.20726562 -2.9453125 13.1953125 C-3.2753125 11.8753125 -3.6053125 10.5553125 -3.9453125 9.1953125 C-1.6353125 9.5253125 0.6746875 9.8553125 3.0546875 10.1953125 C3.0546875 9.5353125 3.0546875 8.8753125 3.0546875 8.1953125 C0.0846875 7.7003125 0.0846875 7.7003125 -2.9453125 7.1953125 C-3.5703125 4.8203125 -3.5703125 4.8203125 -3.9453125 2.1953125 C-1.9453125 0.1953125 -1.9453125 0.1953125 0 0 Z " fill="#D25677" transform="translate(180.9453125,144.8046875)"/>
<path d="M0 0 C3.8329232 1.46552946 7.29248755 3.14624378 11 5 C11 19.85 11 34.7 11 50 C10.67 50 10.34 50 10 50 C9.67 45.71 9.34 41.42 9 37 C8.67 37 8.34 37 8 37 C8 27.1 8 17.2 8 7 C5.525 6.01 5.525 6.01 3 5 C2.01 4.34 1.02 3.68 0 3 C0 2.01 0 1.02 0 0 Z " fill="#302F33" transform="translate(193,67)"/>
<path d="M0 0 C2.35318746 1.23038875 4.56643982 2.47778531 6.8125 3.875 C7.40998047 4.22691406 8.00746094 4.57882813 8.62304688 4.94140625 C10.33203125 5.9921875 10.33203125 5.9921875 13 8 C13 8.99 13 9.98 13 11 C9.16988268 9.94671774 6.23603368 8.55283101 3 6.3125 C0.33710598 4.61610059 -0.71590562 4.01208912 -3.9375 3.875 C-8.2339393 5.45328383 -12.08595839 7.64287716 -16 10 C-16 8.68 -16 7.36 -16 6 C-13.76953125 4.04296875 -13.76953125 4.04296875 -10.8125 2.1875 C-9.84957031 1.56230469 -8.88664063 0.93710937 -7.89453125 0.29296875 C-4.49478884 -1.22567462 -3.45516313 -1.26935109 0 0 Z " fill="#232326" transform="translate(170,52)"/>
<path d="M0 0 C1.32 0 2.64 0 4 0 C4 1.32 4 2.64 4 4 C4.804375 3.979375 5.60875 3.95875 6.4375 3.9375 C9 4 9 4 10 5 C10.07179964 6.51928038 10.08392007 8.04167482 10.0625 9.5625 C10.05347656 10.38878906 10.04445312 11.21507812 10.03515625 12.06640625 C10.02355469 12.70449219 10.01195312 13.34257812 10 14 C8.68 14 7.36 14 6 14 C6 11.69 6 9.38 6 7 C5.34 7 4.68 7 4 7 C4 9.31 4 11.62 4 14 C2.68 14 1.36 14 0 14 C0 9.38 0 4.76 0 0 Z " fill="#C35572" transform="translate(191,144)"/>
<path d="M0 0 C2.01822917 0.06510417 4.03645833 0.13020833 6.0546875 0.1953125 C6.3846875 3.1653125 6.7146875 6.1353125 7.0546875 9.1953125 C4.04144555 10.70193347 1.37182373 10.37301623 -1.9453125 10.1953125 C-3.9453125 8.1953125 -3.9453125 8.1953125 -4.1953125 5.1953125 C-3.91874762 1.87653392 -3.53131274 0.35454947 0 0 Z " fill="#DD7C97" transform="translate(206.9453125,147.8046875)"/>
<path d="M0 0 C1.81242052 -0.02687279 3.62495233 -0.04633715 5.4375 -0.0625 C6.44683594 -0.07410156 7.45617187 -0.08570312 8.49609375 -0.09765625 C11 0 11 0 12 1 C12.04063832 2.66617115 12.042721 4.33388095 12 6 C8.36736489 8.32488647 5.23314767 8.23961213 1 8 C0 7 0 7 -0.0625 3.4375 C-0.041875 2.303125 -0.02125 1.16875 0 0 Z " fill="#D34366" transform="translate(152,104)"/>
<path d="M0 0 C7.71484375 -0.09765625 7.71484375 -0.09765625 10 0 C11 1 11 1 11.09765625 3.06640625 C11.08605469 3.89011719 11.07445312 4.71382812 11.0625 5.5625 C11.05347656 6.38878906 11.04445312 7.21507812 11.03515625 8.06640625 C11.02355469 8.70449219 11.01195312 9.34257812 11 10 C9.68 10 8.36 10 7 10 C7 7.69 7 5.38 7 3 C6.01 3 5.02 3 4 3 C4 5.31 4 7.62 4 10 C2.68 10 1.36 10 0 10 C0 6.7 0 3.4 0 0 Z " fill="#2D2C31" transform="translate(148,148)"/>
<path d="M0 0 C1.16257324 0.01047363 2.32514648 0.02094727 3.52294922 0.03173828 C5.40820312 0.04140625 5.40820312 0.04140625 7.33154297 0.05126953 C9.30960938 0.07640625 9.30960938 0.07640625 11.32763672 0.10205078 C12.66747393 0.11208096 14.00731823 0.12120674 15.34716797 0.12939453 C18.63250244 0.15303003 21.91748137 0.18597844 25.20263672 0.22705078 C25.20263672 0.55705078 25.20263672 0.88705078 25.20263672 1.22705078 C14.80763672 1.72205078 14.80763672 1.72205078 4.20263672 2.22705078 C4.20263672 3.21705078 4.20263672 4.20705078 4.20263672 5.22705078 C5.85263672 5.22705078 7.50263672 5.22705078 9.20263672 5.22705078 C7.20263672 7.22705078 7.20263672 7.22705078 4.16357422 7.42236328 C2.98021484 7.39916016 1.79685547 7.37595703 0.57763672 7.35205078 C-0.61087891 7.33400391 -1.79939453 7.31595703 -3.02392578 7.29736328 C-3.93916016 7.27416016 -4.85439453 7.25095703 -5.79736328 7.22705078 C-4.71669771 0.38283547 -4.71669771 0.38283547 0 0 Z " fill="#B64060" transform="translate(156.79736328125,34.77294921875)"/>
<path d="M0 0 C0.99 0.33 1.98 0.66 3 1 C3.33 2.98 3.66 4.96 4 7 C4.99 7 5.98 7 7 7 C6.65213292 5.02463255 6.65213292 5.02463255 6 3 C5.34 2.67 4.68 2.34 4 2 C4 1.34 4 0.68 4 0 C5.66611905 -0.042721 7.33382885 -0.04063832 9 0 C10 1 10 1 10.1328125 2.8125 C10.13023437 3.534375 10.12765625 4.25625 10.125 5 C10.12757813 5.721875 10.13015625 6.44375 10.1328125 7.1875 C10 9 10 9 9 10 C7.00041636 10.04080783 4.99954746 10.04254356 3 10 C3 11.32 3 12.64 3 14 C2.01 14 1.02 14 0 14 C0 9.38 0 4.76 0 0 Z " fill="#CA4D6E" transform="translate(217,148)"/>
<path d="M0 0 C0.99 0.66 1.98 1.32 3 2 C3.66 1.67 4.32 1.34 5 1 C5.66 1.33 6.32 1.66 7 2 C6.67 4.97 6.34 7.94 6 11 C4.68 11.33 3.36 11.66 2 12 C2 11.34 2 10.68 2 10 C-0.31 10.33 -2.62 10.66 -5 11 C-5 10.34 -5 9.68 -5 9 C-1.535 8.505 -1.535 8.505 2 8 C1.67 7.01 1.34 6.02 1 5 C0.01 4.67 -0.98 4.34 -2 4 C-2 4.99 -2 5.98 -2 7 C-2.99 7 -3.98 7 -5 7 C-5 6.34 -5 5.68 -5 5 C-4.34 5 -3.68 5 -3 5 C-3 4.34 -3 3.68 -3 3 C-4.32 2.67 -5.64 2.34 -7 2 C-3.6875 0.875 -3.6875 0.875 0 0 Z " fill="#DCD9DD" transform="translate(170,145)"/>
<path d="M0 0 C2 3 2 3 2 7 C3.32 7.33 4.64 7.66 6 8 C4.68 8.33 3.36 8.66 2 9 C5.465 10.485 5.465 10.485 9 12 C8.67 13.32 8.34 14.64 8 16 C6.52093108 16.02689216 5.04172517 16.04634621 3.5625 16.0625 C2.32693359 16.07990234 2.32693359 16.07990234 1.06640625 16.09765625 C-1 16 -1 16 -2 15 C-1.71269945 12.66055264 -1.38063221 10.3260857 -1 8 C-1.99 7.67 -2.98 7.34 -4 7 C-2.68 7 -1.36 7 0 7 C0 4.69 0 2.38 0 0 Z " fill="#BABABA" transform="translate(146,151)"/>
<path d="M0 0 C6.93359375 -0.09765625 6.93359375 -0.09765625 9 0 C10 1 10 1 10.09765625 3.06640625 C10.08605469 3.89011719 10.07445312 4.71382812 10.0625 5.5625 C10.05347656 6.38878906 10.04445312 7.21507812 10.03515625 8.06640625 C10.02355469 8.70449219 10.01195312 9.34257812 10 10 C9.01 10 8.02 10 7 10 C6.87625 9.030625 6.7525 8.06125 6.625 7.0625 C6.315625 5.5465625 6.315625 5.5465625 6 4 C5.34 3.67 4.68 3.34 4 3 C4 5.31 4 7.62 4 10 C2.68 10 1.36 10 0 10 C0 6.7 0 3.4 0 0 Z " fill="#121216" transform="translate(123,148)"/>
<path d="M0 0 C1.32 0 2.64 0 4 0 C4 0.66 4 1.32 4 2 C3.34 2 2.68 2 2 2 C2 2.66 2 3.32 2 4 C2.99 4 3.98 4 5 4 C5 3.01 5 2.02 5 1 C6.32 1.33 7.64 1.66 9 2 C9 2.99 9 3.98 9 5 C6.69 5.33 4.38 5.66 2 6 C2 6.66 2 7.32 2 8 C5.465 7.505 5.465 7.505 9 7 C8.67 7.99 8.34 8.98 8 10 C1.9453125 10.1953125 1.9453125 10.1953125 0 10 C-2 8 -2 8 -2.25 5 C-2 2 -2 2 0 0 Z " fill="#222126" transform="translate(163,148)"/>
<path d="M0 0 C-0.020625 1.11375 -0.04125 2.2275 -0.0625 3.375 C-0.26380718 6.83215921 -0.26380718 6.83215921 1 9 C1.66 9.33 2.32 9.66 3 10 C-0.375 10.625 -0.375 10.625 -4 11 C-4.66 10.34 -5.32 9.68 -6 9 C-5.34 9 -4.68 9 -4 9 C-4.33 8.01 -4.66 7.02 -5 6 C-7.64 5.67 -10.28 5.34 -13 5 C-13 4.34 -13 3.68 -13 3 C-11.39743892 2.49487756 -9.79288208 1.99608373 -8.1875 1.5 C-7.29417969 1.2215625 -6.40085938 0.943125 -5.48046875 0.65625 C-3 0 -3 0 0 0 Z " fill="#F7F7F6" transform="translate(174,157)"/>
<path d="M0 0 C0.33 0.66 0.66 1.32 1 2 C1.66 2.33 2.32 2.66 3 3 C0.40011448 4.50787377 -2.20440197 6.00645461 -4.8125 7.5 C-5.91948242 8.14388672 -5.91948242 8.14388672 -7.04882812 8.80078125 C-7.76103516 9.20683594 -8.47324219 9.61289063 -9.20703125 10.03125 C-9.8616333 10.40830078 -10.51623535 10.78535156 -11.19067383 11.17382812 C-13 12 -13 12 -16 12 C-16.33 10.35 -16.66 8.7 -17 7 C-16.30519531 7.0721875 -15.61039063 7.144375 -14.89453125 7.21875 C-11.10188155 6.932126 -8.91134379 5.48390387 -5.6875 3.5 C-4.08455078 2.52546875 -4.08455078 2.52546875 -2.44921875 1.53125 C-1.64097656 1.0259375 -0.83273438 0.520625 0 0 Z " fill="#2B2B2B" transform="translate(181,126)"/>
<path d="M0 0 C0.33 0.99 0.66 1.98 1 3 C1.99 3.33 2.98 3.66 4 4 C4.33 5.65 4.66 7.3 5 9 C2.525 8.505 2.525 8.505 0 8 C-0.12375 7.030625 -0.2475 6.06125 -0.375 5.0625 C-0.58125 4.051875 -0.7875 3.04125 -1 2 C-1.66 1.67 -2.32 1.34 -3 1 C-3 5.62 -3 10.24 -3 15 C-3.33 15 -3.66 15 -4 15 C-4 10.38 -4 5.76 -4 1 C-4.66 1 -5.32 1 -6 1 C-5.67 1.66 -5.34 2.32 -5 3 C-4.960008 4.99960012 -4.95653201 7.00047242 -5 9 C-5.33 9 -5.66 9 -6 9 C-6.33 6.36 -6.66 3.72 -7 1 C-8.98 1 -10.96 1 -13 1 C-13 0.67 -13 0.34 -13 0 C-8.37078475 -1.0161692 -4.65537393 -0.83796731 0 0 Z " fill="#F0B2C2" transform="translate(220,147)"/>
<path d="M0 0 C0.33 0.66 0.66 1.32 1 2 C2.7634375 1.7525 2.7634375 1.7525 4.5625 1.5 C8.41273873 1.01271488 12.12258073 0.91922043 16 1 C16.33 2.32 16.66 3.64 17 5 C12.9416951 6.3527683 9.51449864 5.89548223 5.3125 5.5 C4.31863281 5.4071875 3.32476562 5.314375 2.30078125 5.21875 C1.54152344 5.1465625 0.78226563 5.074375 0 5 C0 3.35 0 1.7 0 0 Z " fill="#6E6E6E" transform="translate(173,161)"/>
<path d="M0 0 C2.31 0.66 4.62 1.32 7 2 C7 2.66 7 3.32 7 4 C4.69 3.67 2.38 3.34 0 3 C0.33 3.99 0.66 4.98 1 6 C3.64 6.33 6.28 6.66 9 7 C9 7.33 9 7.66 9 8 C6.69 8.33 4.38 8.66 2 9 C2 9.99 2 10.98 2 12 C1.01 12.495 1.01 12.495 0 13 C-0.99 12.67 -1.98 12.34 -3 12 C-4.17755913 9.05610218 -4.03348696 8.10046087 -3 5 C-2.34 5 -1.68 5 -1 5 C-0.67 3.35 -0.34 1.7 0 0 Z " fill="#F2DCE3" transform="translate(177,151)"/>
<path d="M0 0 C1.9453125 -0.29296875 1.9453125 -0.29296875 4.125 -0.1875 C5.40375 -0.125625 6.6825 -0.06375 8 0 C8 0.99 8 1.98 8 3 C8.66 3.33 9.32 3.66 10 4 C10 4.66 10 5.32 10 6 C9.34 6 8.68 6 8 6 C8.33 8.64 8.66 11.28 9 14 C8.01 14.495 8.01 14.495 7 15 C5 13 5 13 4.8046875 11.0546875 C4.90234375 8.02734375 4.90234375 8.02734375 5 5 C2.69 4.34 0.38 3.68 -2 3 C-1.34 2.01 -0.68 1.02 0 0 Z " fill="#F8F2F2" transform="translate(221,144)"/>
<path d="M0 0 C0.33 0 0.66 0 1 0 C1 12.21 1 24.42 1 37 C-0.98 37.495 -0.98 37.495 -3 38 C-2.67 37.01 -2.34 36.02 -2 35 C-0.9669191 27.15283654 -0.73266689 19.21426269 -0.4375 11.3125 C-0.39431641 10.21744141 -0.35113281 9.12238281 -0.30664062 7.99414062 C-0.20191731 5.32951403 -0.09974221 2.66481689 0 0 Z " fill="#0F0E12" transform="translate(202,80)"/>
<path d="M0 0 C12.21 0 24.42 0 37 0 C37 0.33 37 0.66 37 1 C25.45 1 13.9 1 2 1 C2.33 3.64 2.66 6.28 3 9 C2.01 9.33 1.02 9.66 0 10 C-0.33 9.01 -0.66 8.02 -1 7 C-0.34 7 0.32 7 1 7 C0.67 4.69 0.34 2.38 0 0 Z " fill="#501425" transform="translate(149,102)"/>
<path d="M0 0 C0.66 0 1.32 0 2 0 C2 1.98 2 3.96 2 6 C-10.21 6 -22.42 6 -35 6 C-35 5.67 -35 5.34 -35 5 C-23.78 4.67 -12.56 4.34 -1 4 C-0.67 2.68 -0.34 1.36 0 0 Z " fill="#260C11" transform="translate(187,38)"/>
<path d="M0 0 C0.99 0.33 1.98 0.66 3 1 C2.125 5.875 2.125 5.875 1 7 C-0.51928038 7.07179964 -2.04167482 7.08392007 -3.5625 7.0625 C-4.38878906 7.05347656 -5.21507812 7.04445312 -6.06640625 7.03515625 C-6.70449219 7.02355469 -7.34257812 7.01195312 -8 7 C-8.33 5.68 -8.66 4.36 -9 3 C-6.36 3.33 -3.72 3.66 -1 4 C-0.67 2.68 -0.34 1.36 0 0 Z " fill="#C54D6C" transform="translate(186,151)"/>
<path d="M0 0 C2.5 0.125 2.5 0.125 3.5 1.125 C3.625 3.625 3.625 3.625 3.5 6.125 C2.5 7.125 2.5 7.125 0 7.25 C-2.5 7.125 -2.5 7.125 -3.5 6.125 C-3.625 3.625 -3.625 3.625 -3.5 1.125 C-2.5 0.125 -2.5 0.125 0 0 Z " fill="#FBD5E2" transform="translate(168.5,103.875)"/>
<path d="M0 0 C-0.37169504 2.63002402 -0.7078685 3.74520369 -2.7421875 5.51953125 C-3.44601563 5.94621094 -4.14984375 6.37289062 -4.875 6.8125 C-5.92300781 7.47185547 -5.92300781 7.47185547 -6.9921875 8.14453125 C-9 9 -9 9 -12 8 C-10.77974937 4.3392481 -9.873509 4.07660559 -6.5625 2.3125 C-5.75941406 1.87550781 -4.95632812 1.43851562 -4.12890625 0.98828125 C-2 0 -2 0 0 0 Z " fill="#232325" transform="translate(144,65)"/>
<path d="M0 0 C1.32 0 2.64 0 4 0 C4 3.3 4 6.6 4 10 C2.68 10 1.36 10 0 10 C0 6.7 0 3.4 0 0 Z " fill="#242428" transform="translate(142,148)"/>
<path d="M0 0 C0.33 0 0.66 0 1 0 C1 4.29 1 8.58 1 13 C2.32 13.33 3.64 13.66 5 14 C-2.42857143 15.28571429 -2.42857143 15.28571429 -6 14 C-6 11.69 -6 9.38 -6 7 C-5.67 7 -5.34 7 -5 7 C-5 8.98 -5 10.96 -5 13 C-4.01 13 -3.02 13 -2 13 C-2 10.69 -2 8.38 -2 6 C-1.67 6 -1.34 6 -1 6 C-0.67 4.02 -0.34 2.04 0 0 Z " fill="#B5B5B6" transform="translate(135,145)"/>
<path d="M0 0 C0.99 0 1.98 0 3 0 C3 4.29 3 8.58 3 13 C2.01 13 1.02 13 0 13 C0 8.71 0 4.42 0 0 Z " fill="#0F0E12" transform="translate(136,145)"/>
<path d="M0 0 C0.33 0 0.66 0 1 0 C1 3.96 1 7.92 1 12 C0.01 12.495 0.01 12.495 -1 13 C-1.66 12.34 -2.32 11.68 -3 11 C-2.625 8.375 -2.625 8.375 -2 6 C-3.98 5.01 -5.96 4.02 -8 3 C-4.71023192 1.90341064 -3.28696233 2.20046862 0 3 C0 2.01 0 1.02 0 0 Z " fill="#F9D2DF" transform="translate(190,146)"/>
<path d="M0 0 C7.74468085 0.74468085 7.74468085 0.74468085 11 4 C11 4.66 11 5.32 11 6 C11.66 6.33 12.32 6.66 13 7 C12.01 7.495 12.01 7.495 11 8 C8.3984375 6.6015625 8.3984375 6.6015625 5.375 4.625 C4.37210938 3.97789062 3.36921875 3.33078125 2.3359375 2.6640625 C1.56507813 2.11492187 0.79421875 1.56578125 0 1 C0 0.67 0 0.34 0 0 Z " fill="#1E1E1E" transform="translate(153,129)"/>
<path d="M0 0 C0.99 0.66 1.98 1.32 3 2 C3.66 1.67 4.32 1.34 5 1 C5.66 1.33 6.32 1.66 7 2 C6.67 2.99 6.34 3.98 6 5 C2.88742431 5 0.89234315 4.82638376 -2 4 C-2 4.99 -2 5.98 -2 7 C-2.99 7 -3.98 7 -5 7 C-5 6.34 -5 5.68 -5 5 C-4.34 5 -3.68 5 -3 5 C-3 4.34 -3 3.68 -3 3 C-4.32 2.67 -5.64 2.34 -7 2 C-3.6875 0.875 -3.6875 0.875 0 0 Z " fill="#D1CED1" transform="translate(170,145)"/>
<path d="M0 0 C1.67542976 0.28604898 3.34385343 0.61781233 5 1 C5 3.97 5 6.94 5 10 C4.01 10 3.02 10 2 10 C1.8046875 7.94921875 1.609375 5.8984375 1.4140625 3.84765625 C1.27742187 3.23792969 1.14078125 2.62820312 1 2 C0.34 1.67 -0.32 1.34 -1 1 C-0.67 0.67 -0.34 0.34 0 0 Z " fill="#C74A6A" transform="translate(196,148)"/>
<path d="M0 0 C1.32 0 2.64 0 4 0 C4 2.31 4 4.62 4 7 C2.35 6.67 0.7 6.34 -1 6 C-1.042721 4.33388095 -1.04063832 2.66617115 -1 1 C-0.67 0.67 -0.34 0.34 0 0 Z " fill="#EBEBED" transform="translate(112,148)"/>
<path d="M0 0 C5.875 0.875 5.875 0.875 7 2 C6.82364548 4.69082872 6.38164079 7.32851446 6 10 C2.99472353 8.49736177 3.02782386 6.08347159 2 3 C1.34 2.67 0.68 2.34 0 2 C0 1.34 0 0.68 0 0 Z " fill="#151517" transform="translate(113,145)"/>
<path d="M0 0 C3.5875213 1.33250791 6.8364623 2.830717 10 5 C10 5.66 10 6.32 10 7 C5.85463326 6.5289356 3.0080208 6.0080208 0 3 C0 2.01 0 1.02 0 0 Z " fill="#1F1F1F" transform="translate(193,67)"/>
<path d="M0 0 C0.33 0 0.66 0 1 0 C1.33 1.65 1.66 3.3 2 5 C2.66 3.35 3.32 1.7 4 0 C4.33 0 4.66 0 5 0 C4.25 6.75 4.25 6.75 2 9 C1.01 9 0.02 9 -1 9 C-1 8.34 -1 7.68 -1 7 C-2.32 7 -3.64 7 -5 7 C-4.67 6.34 -4.34 5.68 -4 5 C-2.02 5.495 -2.02 5.495 0 6 C0 4.02 0 2.04 0 0 Z " fill="#333335" transform="translate(116,149)"/>
<path d="M0 0 C3.3 1.65 6.6 3.3 10 5 C9.34 5.66 8.68 6.32 8 7 C3.60370982 6.76236269 1.22741144 4.85856441 -2 2 C-1.34 2 -0.68 2 0 2 C0 1.34 0 0.68 0 0 Z " fill="#2A292A" transform="translate(147,123)"/>
<path d="M0 0 C0.99 0.66 1.98 1.32 3 2 C-1.455 4.97 -1.455 4.97 -6 8 C-6.33 6.68 -6.66 5.36 -7 4 C-4.69 2.68 -2.38 1.36 0 0 Z " fill="#1E1D1F" transform="translate(161,54)"/>
<path d="M0 0 C0.33 0 0.66 0 1 0 C1 3.3 1 6.6 1 10 C2.32 10.33 3.64 10.66 5 11 C2.1875 11.6875 2.1875 11.6875 -1 12 C-2.875 10.5625 -2.875 10.5625 -4 9 C-3.34 8.01 -2.68 7.02 -2 6 C-1.34 6 -0.68 6 0 6 C0 4.02 0 2.04 0 0 Z " fill="#DBDBDD" transform="translate(122,148)"/>
<path d="M0 0 C1.98 0 3.96 0 6 0 C6.66 1.32 7.32 2.64 8 4 C5.6875 4.625 5.6875 4.625 3 5 C2.01 4.34 1.02 3.68 0 3 C0 2.01 0 1.02 0 0 Z " fill="#EE3A67" transform="translate(177,37)"/>
<path d="M0 0 C2.31 0 4.62 0 7 0 C7.33 1.32 7.66 2.64 8 4 C5.03 4 2.06 4 -1 4 C-0.67 2.68 -0.34 1.36 0 0 Z " fill="#575757" transform="translate(162,162)"/>
<path d="M0 0 C0.66 0 1.32 0 2 0 C3.35439668 2.70879335 3.06501451 5.00933268 3 8 C1.02 8.33 -0.96 8.66 -3 9 C-3 8.34 -3 7.68 -3 7 C-2.34 6.67 -1.68 6.34 -1 6 C-0.34227572 2.97065509 -0.34227572 2.97065509 0 0 Z " fill="#CC4A6F" transform="translate(211,149)"/>
<path d="M0 0 C2.4375 0.75 2.4375 0.75 4.4375 2.75 C3.4475 4.235 3.4475 4.235 2.4375 5.75 C2.04736284 7.7396995 1.70547351 9.74019869 1.4375 11.75 C1.1075 11.75 0.7775 11.75 0.4375 11.75 C0.1075 8.78 -0.2225 5.81 -0.5625 2.75 C-2.2125 2.42 -3.8625 2.09 -5.5625 1.75 C-2.5625 -0.25 -2.5625 -0.25 0 0 Z " fill="#F9D2DD" transform="translate(200.5625,146.25)"/>
<path d="M0 0 C1.32 0 2.64 0 4 0 C4 1.32 4 2.64 4 4 C1.03 4.66 -1.94 5.32 -5 6 C-5 5.01 -5 4.02 -5 3 C-4.360625 2.87625 -3.72125 2.7525 -3.0625 2.625 C-2.0415625 2.315625 -2.0415625 2.315625 -1 2 C-0.67 1.34 -0.34 0.68 0 0 Z " fill="#F73663" transform="translate(180,105)"/>
<path d="M0 0 C1.98 0.66 3.96 1.32 6 2 C5.67 3.32 5.34 4.64 5 6 C3.35 6 1.7 6 0 6 C0 4.02 0 2.04 0 0 Z " fill="#686868" transform="translate(149,161)"/>
<path d="M0 0 C0.33 0 0.66 0 1 0 C1.66 2.64 2.32 5.28 3 8 C5.31 8.33 7.62 8.66 10 9 C10 9.33 10 9.66 10 10 C4.71502591 11.05699482 4.71502591 11.05699482 2 11 C-0.5 9.0625 -0.5 9.0625 -2 7 C-1.34 4.69 -0.68 2.38 0 0 Z " fill="#D6D6D8" transform="translate(106,149)"/>
<path d="M0 0 C2.475 0.99 2.475 0.99 5 2 C5 4.97 5 7.94 5 11 C4.67 11 4.34 11 4 11 C4 8.69 4 6.38 4 4 C3.34 4 2.68 4 2 4 C2 6.31 2 8.62 2 11 C1.67 11 1.34 11 1 11 C1 8.69 1 6.38 1 4 C0.34 4 -0.32 4 -1 4 C-0.67 2.68 -0.34 1.36 0 0 Z " fill="#DF6F89" transform="translate(193,147)"/>
<path d="M0 0 C4.75 0.875 4.75 0.875 7 2 C7 2.66 7 3.32 7 4 C5.02 4.33 3.04 4.66 1 5 C0.67 3.35 0.34 1.7 0 0 Z " fill="#F63662" transform="translate(154,105)"/>
<path d="M0 0 C2.375 1.25 2.375 1.25 3.375 4.25 C2.715 4.25 2.055 4.25 1.375 4.25 C1.045 5.57 0.715 6.89 0.375 8.25 C0.1275 7.486875 -0.12 6.72375 -0.375 5.9375 C-1.73495558 3.0135955 -2.94085826 1.94995644 -5.625 0.25 C-2.625 -0.75 -2.625 -0.75 0 0 Z " fill="#381921" transform="translate(185.625,33.75)"/>
<path d="M0 0 C0.66 0 1.32 0 2 0 C2 0.66 2 1.32 2 2 C2.99 2.33 3.98 2.66 5 3 C5.33 4.65 5.66 6.3 6 8 C4.35 7.67 2.7 7.34 1 7 C0.67 4.69 0.34 2.38 0 0 Z " fill="#EDA4B3" transform="translate(219,148)"/>
<path d="M0 0 C0.33 0.66 0.66 1.32 1 2 C1.66 2.33 2.32 2.66 3 3 C-1.30769231 6.07692308 -1.30769231 6.07692308 -4.8125 5.6875 C-5.534375 5.460625 -6.25625 5.23375 -7 5 C-4.87219421 2.65941363 -2.88437779 1.29299694 0 0 Z " fill="#2E2D2E" transform="translate(181,126)"/>
<path d="M0 0 C0.66 0.33 1.32 0.66 2 1 C2.3125 3.8125 2.3125 3.8125 2 7 C-0.3125 8.9375 -0.3125 8.9375 -3 10 C-3.99 9.67 -4.98 9.34 -6 9 C-5.38125 8.62875 -4.7625 8.2575 -4.125 7.875 C-1.4489404 5.51377094 -0.9063156 3.39868348 0 0 Z " fill="#E7E8EA" transform="translate(190,105)"/>
<path d="M0 0 C0.66 1.32 1.32 2.64 2 4 C5.12290635 3.51421457 7.99580359 3.0013988 11 2 C10.67 3.32 10.34 4.64 10 6 C8.52093108 6.02689216 7.04172517 6.04634621 5.5625 6.0625 C4.32693359 6.07990234 4.32693359 6.07990234 3.06640625 6.09765625 C1 6 1 6 0 5 C-0.04063832 3.33382885 -0.042721 1.66611905 0 0 Z " fill="#E74167" transform="translate(153,105)"/>
<path d="M0 0 C0.66 0 1.32 0 2 0 C2.02698189 1.62490954 2.04638757 3.24994633 2.0625 4.875 C2.07410156 5.77992188 2.08570313 6.68484375 2.09765625 7.6171875 C2 10 2 10 1 12 C-0.32 12 -1.64 12 -3 12 C-2.67 11.01 -2.34 10.02 -2 9 C-1.34 8.67 -0.68 8.34 0 8 C0 5.36 0 2.72 0 0 Z " fill="#F8EEF0" transform="translate(214,148)"/>
<path d="M0 0 C0.33 1.32 0.66 2.64 1 4 C-0.98 4.99 -2.96 5.98 -5 7 C-5 6.34 -5 5.68 -5 5 C-5.66 4.67 -6.32 4.34 -7 4 C-4.69 2.68 -2.38 1.36 0 0 Z " fill="#2A2A2A" transform="translate(199,115)"/>
<path d="M0 0 C3.68754757 0.49831724 5.60490662 1.10067643 8 4 C7.01 4.66 6.02 5.32 5 6 C3.2925002 4.71937515 1.62626404 3.38232443 0 2 C0 1.34 0 0.68 0 0 Z " fill="#272727" transform="translate(132,115)"/>
<path d="M0 0 C3.3 0 6.6 0 10 0 C9.67 0.99 9.34 1.98 9 3 C6.36 3 3.72 3 1 3 C0.67 2.01 0.34 1.02 0 0 Z " fill="#1A1A1B" transform="translate(162,155)"/>
<path d="M0 0 C2 1 2 1 3 3 C3.039992 4.99960012 3.04346799 7.00047242 3 9 C2.01 9 1.02 9 0 9 C0 6.03 0 3.06 0 0 Z " fill="#111113" transform="translate(123,149)"/>
<path d="M0 0 C1.65 0 3.3 0 5 0 C3.68 0.33 2.36 0.66 1 1 C1.33 2.65 1.66 4.3 2 6 C1.01 6 0.02 6 -1 6 C-1.33 6.99 -1.66 7.98 -2 9 C-2.66 7.68 -3.32 6.36 -4 5 C-2.68 4.67 -1.36 4.34 0 4 C0 2.68 0 1.36 0 0 Z " fill="#FAD8E4" transform="translate(220,158)"/>
<path d="M0 0 C0.33 0 0.66 0 1 0 C1 1.98 1 3.96 1 6 C1.66 6 2.32 6 3 6 C2.34 7.32 1.68 8.64 1 10 C0.01 10 -0.98 10 -2 10 C-1.34 6.7 -0.68 3.4 0 0 Z " fill="#3E1F29" transform="translate(186,103)"/>
<path d="M0 0 C2.125 0.9375 2.125 0.9375 4 2 C2.68 3.65 1.36 5.3 0 7 C-0.66 6.34 -1.32 5.68 -2 5 C-1.67 4.67 -1.34 4.34 -1 4 C-1.33 3.01 -1.66 2.02 -2 1 C-1.34 0.67 -0.68 0.34 0 0 Z " fill="#EEF5F2" transform="translate(146,33)"/>
<path d="M0 0 C2.4375 0.625 2.4375 0.625 5 2 C5.8125 5.125 5.8125 5.125 6 8 C3 7 3 7 1.9375 5.0625 C1.628125 4.381875 1.31875 3.70125 1 3 C0.34 2.34 -0.32 1.68 -1 1 C-0.67 0.67 -0.34 0.34 0 0 Z " fill="#E5EFEE" transform="translate(186,32)"/>
<path d="M0 0 C0.99 0 1.98 0 3 0 C3 2.31 3 4.62 3 7 C2.01 7 1.02 7 0 7 C0 4.69 0 2.38 0 0 Z " fill="#DEDDE1" transform="translate(152,151)"/>
<path d="M0 0 C1.5 1.375 1.5 1.375 3 3 C3 3.66 3 4.32 3 5 C3.66 5.33 4.32 5.66 5 6 C1.625 6.625 1.625 6.625 -2 7 C-2.66 6.34 -3.32 5.68 -4 5 C-3.01 4.34 -2.02 3.68 -1 3 C-0.67 2.01 -0.34 1.02 0 0 Z " fill="#D4D4D4" transform="translate(172,161)"/>
<path d="M0 0 C0 1.98 0 3.96 0 6 C-1.32 6 -2.64 6 -4 6 C-4 4.35 -4 2.7 -4 1 C-2 0 -2 0 0 0 Z " fill="#474747" transform="translate(160,162)"/>
<path d="M0 0 C2.38564077 0.57584432 4.66682784 1.22227595 7 2 C6.67 2.66 6.34 3.32 6 4 C5.34 3.67 4.68 3.34 4 3 C4 5.31 4 7.62 4 10 C3.67 10 3.34 10 3 10 C2.51171875 7.98177083 2.0234375 5.96354167 1.53515625 3.9453125 C1.05153008 1.9414343 1.05153008 1.9414343 0 0 Z " fill="#3E3D40" transform="translate(123,148)"/>
<path d="M0 0 C0.33 0.99 0.66 1.98 1 3 C-0.98 3.66 -2.96 4.32 -5 5 C-5.33 4.01 -5.66 3.02 -6 2 C-4.02 1.34 -2.04 0.68 0 0 Z " fill="#202020" transform="translate(176,130)"/>
<path d="M0 0 C1.65 1.65 3.3 3.3 5 5 C4.67 5.66 4.34 6.32 4 7 C2.0625 6.25 2.0625 6.25 0 5 C-0.8125 2.9375 -0.8125 2.9375 -1 1 C-0.67 0.67 -0.34 0.34 0 0 Z " fill="#ECEEF0" transform="translate(146,108)"/>
<path d="M0 0 C1.32 0.33 2.64 0.66 4 1 C4 1.99 4 2.98 4 4 C2.02 4.33 0.04 4.66 -2 5 C-2.33 4.34 -2.66 3.68 -3 3 C-2.01 3 -1.02 3 0 3 C0 2.01 0 1.02 0 0 Z " fill="#1B1A20" transform="translate(168,149)"/>
<path d="M0 0 C0.66 0.33 1.32 0.66 2 1 C0.35 2.65 -1.3 4.3 -3 6 C-3.99 5.67 -4.98 5.34 -6 5 C-4.06745228 2.9754262 -2.36841312 1.57894208 0 0 Z " fill="#E7E6E7" transform="translate(163,56)"/>
<path d="M0 0 C1.32 0 2.64 0 4 0 C4 1.32 4 2.64 4 4 C2.35 4 0.7 4 -1 4 C-0.67 2.68 -0.34 1.36 0 0 Z " fill="#EE3866" transform="translate(155,37)"/>
<path d="M0 0 C2.31 0.33 4.62 0.66 7 1 C6.01 1.33 5.02 1.66 4 2 C4 2.66 4 3.32 4 4 C2.68 3.67 1.36 3.34 0 3 C0 2.01 0 1.02 0 0 Z " fill="#CD5D7C" transform="translate(177,154)"/>
<path d="M0 0 C0.66 0 1.32 0 2 0 C2.33 2.64 2.66 5.28 3 8 C2.01 8 1.02 8 0 8 C0 5.36 0 2.72 0 0 Z " fill="#151518" transform="translate(156,150)"/>
<path d="M0 0 C2.9375 0.375 2.9375 0.375 6 1 C6.33 1.66 6.66 2.32 7 3 C5.35 3.33 3.7 3.66 2 4 C1.34 2.68 0.68 1.36 0 0 Z " fill="#2F171F" transform="translate(150,111)"/>
<path d="M0 0 C0.33 0.66 0.66 1.32 1 2 C2.65 2 4.3 2 6 2 C6 2.99 6 3.98 6 5 C4.02 5 2.04 5 0 5 C0 3.35 0 1.7 0 0 Z " fill="#363636" transform="translate(173,161)"/>
<path d="M0 0 C1.5625 1.6875 1.5625 1.6875 3 4 C2.6875 6.75 2.6875 6.75 2 9 C1.01 8.34 0.02 7.68 -1 7 C-0.67 4.69 -0.34 2.38 0 0 Z " fill="#F8DBE1" transform="translate(227,150)"/>
<path d="M0 0 C0.66 0.99 1.32 1.98 2 3 C0.68 3 -0.64 3 -2 3 C-2 4.98 -2 6.96 -2 9 C-2.33 9 -2.66 9 -3 9 C-3.33 6.69 -3.66 4.38 -4 2 C-2.68 1.34 -1.36 0.68 0 0 Z " fill="#F3F3F4" transform="translate(124,145)"/>
<path d="M0 0 C0 1.98 0 3.96 0 6 C-0.99 6 -1.98 6 -3 6 C-3.33 4.35 -3.66 2.7 -4 1 C-2 0 -2 0 0 0 Z " fill="#F7F6F7" transform="translate(170,105)"/>
<path d="M0 0 C0 0.33 0 0.66 0 1 C-0.94875 1.309375 -1.8975 1.61875 -2.875 1.9375 C-5.86080408 2.87394742 -5.86080408 2.87394742 -8 4 C-8.33 2.68 -8.66 1.36 -9 0 C-5.93109813 -1.53445094 -3.29905734 -0.54984289 0 0 Z " fill="#2E1118" transform="translate(159,34)"/>
</svg>
